<?xml version="1.0" standalone="no"?>
<!DOCTYPE svg PUBLIC "-//W3C//DTD SVG 20010904//EN"
 "http://www.w3.org/TR/2001/REC-SVG-20010904/DTD/svg10.dtd">
<svg version="1.0" xmlns="http://www.w3.org/2000/svg"
 width="200.000000pt" height="200.000000pt" viewBox="0 0 200.000000 200.000000"
 preserveAspectRatio="xMidYMid meet">

<g transform="translate(0.000000,200.000000) scale(0.100000,-0.100000)"
fill="#000000" stroke="none">
<path d="M385 1622 c-120 -41 -196 -109 -249 -221 l-31 -66 0 -326 0 -325 38
-76 c45 -91 119 -165 202 -199 l55 -23 0 -77 c0 -81 13 -108 46 -95 9 4 75 42
145 86 l128 79 443 3 443 3 57 27 c105 49 191 149 223 260 14 48 16 103 13
360 l-3 303 -31 65 c-38 80 -83 133 -149 176 -101 64 -99 64 -719 64 -506 -1
-566 -2 -611 -18z m1267 -75 c64 -31 125 -95 160 -165 23 -46 23 -53 23 -372
l0 -325 -28 -56 c-30 -63 -92 -125 -159 -161 -43 -23 -46 -23 -493 -28 l-450
-5 -122 -78 c-67 -42 -124 -77 -128 -77 -3 0 -5 35 -5 78 l0 78 -55 18 c-101
31 -191 121 -220 218 -23 79 -21 614 3 680 36 101 108 173 203 208 51 19 81
19 634 17 l580 -2 57 -28z"/>
<path d="M523 1159 c-47 -14 -83 -62 -83 -113 0 -23 7 -52 16 -64 34 -49 116
-67 174 -37 93 48 75 186 -28 215 -20 5 -39 10 -42 9 -3 0 -19 -5 -37 -10z"/>
<path d="M965 1151 c-89 -39 -96 -164 -13 -207 128 -66 258 71 165 172 -28 31
-41 37 -83 40 -27 2 -58 0 -69 -5z"/>
<path d="M1393 1140 c-40 -24 -53 -48 -53 -99 0 -110 151 -157 224 -70 30 36
35 101 10 137 -36 52 -123 68 -181 32z"/>
</g>
</svg>
