<?xml version="1.0" standalone="no"?>
<!DOCTYPE svg PUBLIC "-//W3C//DTD SVG 20010904//EN"
 "http://www.w3.org/TR/2001/REC-SVG-20010904/DTD/svg10.dtd">
<svg version="1.0" xmlns="http://www.w3.org/2000/svg"
 width="200.000000pt" height="200.000000pt" viewBox="0 0 200.000000 200.000000"
 preserveAspectRatio="xMidYMid meet">

<g transform="translate(0.000000,200.000000) scale(0.100000,-0.100000)"
fill="#000000" stroke="none">
<path d="M378 1661 c-31 -10 -72 -28 -91 -40 -56 -34 -126 -117 -160 -189
l-32 -67 -3 -295 c-2 -196 0 -315 8 -355 25 -128 113 -239 234 -296 l64 -30
-5 -62 c-3 -34 0 -75 6 -91 15 -39 34 -33 183 62 l123 77 450 5 450 5 67 32
c94 44 160 109 206 202 l37 75 3 304 c2 190 -1 322 -7 353 -24 112 -101 219
-197 275 -90 53 -104 54 -714 53 -517 0 -570 -2 -622 -18z m1274 -68 c66 -30
139 -102 174 -170 l29 -58 0 -330 0 -330 -26 -56 c-37 -79 -90 -133 -167 -171
l-67 -33 -450 -5 -450 -5 -120 -78 -120 -77 -5 81 -5 82 -42 12 c-100 30 -176
96 -222 195 l-26 55 0 325 0 325 27 57 c27 57 95 140 132 160 11 6 43 19 71
29 47 17 90 18 635 16 578 -2 586 -2 632 -24z"/>
<path d="M397 1282 c-23 -25 -21 -68 3 -92 20 -20 33 -20 605 -20 572 0 585 0
605 20 25 25 26 72 2 93 -17 15 -74 17 -609 17 -559 0 -591 -1 -606 -18z"/>
<path d="M500 1051 c-18 -34 -12 -78 12 -95 20 -14 83 -16 493 -16 410 0 473
2 493 16 24 17 30 61 12 95 -10 18 -27 19 -505 19 -478 0 -495 -1 -505 -19z"/>
<path d="M644 814 c-14 -20 -15 -33 -8 -62 l9 -37 355 -3 c395 -3 380 -5 380
64 0 65 5 64 -375 64 l-345 0 -16 -26z"/>
</g>
</svg>
