<?xml version="1.0" standalone="no"?>
<!DOCTYPE svg PUBLIC "-//W3C//DTD SVG 20010904//EN"
 "http://www.w3.org/TR/2001/REC-SVG-20010904/DTD/svg10.dtd">
<svg version="1.0" xmlns="http://www.w3.org/2000/svg"
 width="200.000000pt" height="200.000000pt" viewBox="0 0 200.000000 200.000000"
 preserveAspectRatio="xMidYMid meet">

<g transform="translate(0.000000,200.000000) scale(0.100000,-0.100000)"
fill="#000000" stroke="none">
<path d="M403 1720 c-113 -27 -217 -114 -272 -230 l-36 -75 0 -330 0 -330 33
-70 c49 -103 137 -187 231 -219 l36 -13 -3 -71 c-4 -74 8 -112 34 -112 9 0 78
38 153 85 l138 85 419 0 c453 0 490 3 577 55 66 38 133 114 169 190 l33 70 3
312 c3 309 3 313 -22 383 -31 89 -85 161 -160 211 -105 70 -93 69 -730 68
-314 -1 -585 -4 -603 -9z m1258 -83 c67 -32 142 -109 172 -175 21 -45 22 -59
22 -377 0 -330 0 -330 -24 -380 -30 -60 -82 -119 -136 -153 -77 -49 -109 -52
-564 -52 l-424 0 -106 -67 c-58 -36 -113 -72 -122 -80 -8 -7 -19 -13 -22 -13
-4 0 -7 35 -7 79 l0 79 -52 17 c-95 31 -168 93 -215 185 l-28 55 0 330 0 330
25 50 c28 58 101 140 145 163 78 40 88 41 695 39 l585 -2 56 -28z"/>
</g>
</svg>
