<?xml version="1.0" standalone="no"?>
<!DOCTYPE svg PUBLIC "-//W3C//DTD SVG 20010904//EN"
 "http://www.w3.org/TR/2001/REC-SVG-20010904/DTD/svg10.dtd">
<svg version="1.0" xmlns="http://www.w3.org/2000/svg"
 width="200.000000pt" height="200.000000pt" viewBox="0 0 200.000000 200.000000"
 preserveAspectRatio="xMidYMid meet">

<g transform="translate(0.000000,200.000000) scale(0.100000,-0.100000)"
fill="#000000" stroke="none">
<path d="M363 1665 c-151 -41 -260 -152 -298 -303 -14 -52 -16 -113 -13 -370
l3 -307 32 -68 c63 -133 183 -225 323 -247 36 -5 247 -10 478 -10 l414 0 101
-64 c120 -75 177 -106 194 -106 23 0 34 41 32 111 l-2 71 69 33 c117 57 206
165 233 286 6 24 11 175 11 335 0 263 -2 298 -20 355 -38 123 -129 223 -247
271 l-58 23 -600 2 c-494 2 -609 -1 -652 -12z m1270 -65 c35 -11 70 -26 76
-34 13 -16 28 -5 -508 -382 l-214 -151 -191 129 c-105 71 -271 184 -368 250
-98 67 -178 124 -178 128 0 12 66 48 118 64 39 12 148 15 623 15 550 1 580 0
642 -19z m169 -117 c72 -95 73 -100 73 -463 l0 -325 -33 -68 c-19 -38 -40 -71
-47 -73 -19 -8 -688 507 -675 520 13 13 634 454 640 455 3 1 22 -20 42 -46z
m-1239 -213 c242 -164 296 -205 285 -215 -7 -6 -154 -126 -327 -265 l-315
-253 -19 24 c-11 13 -32 49 -46 79 l-26 55 0 325 0 325 28 60 c16 33 38 70 49
82 20 22 21 22 47 4 14 -10 160 -109 324 -221z m386 -262 c24 -17 46 -27 49
-22 16 22 73 55 84 48 16 -10 649 -493 666 -509 11 -10 4 -18 -35 -43 -26 -17
-69 -36 -95 -43 l-47 -13 -3 -83 -3 -82 -130 82 -130 82 -470 5 c-464 5 -471
5 -515 28 -63 32 -86 50 -74 61 34 34 641 520 650 521 5 0 29 -14 53 -32z"/>
</g>
</svg>
