<?xml version="1.0" encoding="UTF-8" standalone="no"?>
<!-- Created with Inkscape (http://www.inkscape.org/) -->

<svg
   xmlns:dc="http://purl.org/dc/elements/1.1/"
   xmlns:cc="http://creativecommons.org/ns#"
   xmlns:rdf="http://www.w3.org/1999/02/22-rdf-syntax-ns#"
   xmlns:svg="http://www.w3.org/2000/svg"
   xmlns="http://www.w3.org/2000/svg"
   xmlns:sodipodi="http://sodipodi.sourceforge.net/DTD/sodipodi-0.dtd"
   xmlns:inkscape="http://www.inkscape.org/namespaces/inkscape"
   version="1.1"
   id="svg82"
   width="666.66669"
   height="666.66669"
   viewBox="0 0 666.66669 666.66669"
   sodipodi:docname="spoken-logo-ldpi.svg"
   inkscape:version="0.92.5 (2060ec1f9f, 2020-04-08)">
  <metadata
     id="metadata88">
    <rdf:RDF>
      <cc:Work
         rdf:about="">
        <dc:format>image/svg+xml</dc:format>
        <dc:type
           rdf:resource="http://purl.org/dc/dcmitype/StillImage" />
        <dc:title></dc:title>
      </cc:Work>
    </rdf:RDF>
  </metadata>
  <defs
     id="defs86" />
  <sodipodi:namedview
     pagecolor="#ffffff"
     bordercolor="#666666"
     borderopacity="1"
     objecttolerance="10"
     gridtolerance="10"
     guidetolerance="10"
     inkscape:pageopacity="0"
     inkscape:pageshadow="2"
     inkscape:window-width="1920"
     inkscape:window-height="1016"
     id="namedview84"
     showgrid="false"
     inkscape:zoom="0.62399998"
     inkscape:cx="-23.553707"
     inkscape:cy="376.59882"
     inkscape:window-x="0"
     inkscape:window-y="27"
     inkscape:window-maximized="1"
     inkscape:current-layer="svg82" />
  <g
     id="g92"
     transform="translate(0.8012821,-24.038458)">
    <path
       style="fill:#d3fde5;stroke-width:1.33333337"
       d="m 73.691397,494.55495 c -4.569732,-0.69784 -9.969732,-1.95791 -12,-2.80015 -2.030267,-0.84222 -3.991395,-1.63062 -4.358062,-1.75197 C 44.150891,485.64004 28.424661,473.68398 18.746479,460.66668 13.985014,454.26244 6.3820376,439.7187 4.7332542,433.86076 3.1648501,428.2884 1.3238939,412.51021 1.4047514,405.33335 c 0.069095,-6.13284 4.1035493,-32.1886 5.6774384,-36.66667 0.2577422,-0.73333 1.2284105,-4.03333 2.1570407,-7.33333 4.7498635,-16.87922 16.2869865,-42.15802 26.4709215,-58.00001 12.429034,-19.33442 33.977788,-43.49508 51.169576,-57.37178 6.346449,-5.12267 27.575322,-19.29489 28.902222,-19.29489 0.73104,0 1.52916,-0.45189 1.77361,-1.00418 0.5368,-1.21287 25.2202,-13.6596 27.11111,-13.67092 0.73334,-0.004 3.13334,-0.94862 5.33334,-2.09827 2.2,-1.14964 8.8,-3.50359 14.66666,-5.23099 5.86667,-1.7274 12.46667,-3.77214 14.66667,-4.54389 8.0622,-2.82815 29.85451,-5.59939 50,-6.35831 26.44047,-0.99608 53.75888,1.60743 72,6.86176 1.1,0.31686 6.5,1.87358 12,3.45938 5.5,1.5858 10.75,3.48973 11.66667,4.23094 0.91667,0.74122 1.66667,0.90074 1.66667,0.35448 0,-0.54625 0.75,-0.41781 1.66666,0.28542 0.91667,0.70322 5.26667,2.68941 9.66667,4.41374 4.4,1.72435 8.3,3.47244 8.66667,3.88467 0.36667,0.41223 4.41667,2.50983 9,4.66133 4.58333,2.15151 8.33333,4.40151 8.33333,5 0,0.5985 0.67736,1.08818 1.50524,1.08818 1.4145,0 18.054,10.86845 24.13956,15.76728 6.74488,5.42957 23.33735,20.25423 26.57106,23.74011 7.37786,7.9532 22.80924,28.09642 26.67952,34.82594 2.21421,3.85 4.49108,7 5.05968,7 0.56861,0 1.44885,-3.6682 1.95608,-8.15157 0.50724,-4.48336 1.45273,-9.13336 2.10109,-10.33333 0.64838,-1.19996 2.42403,-5.97216 3.9459,-10.60488 4.3752,-13.3186 12.97229,-26.4973 25.60044,-39.24355 6.3572,-6.41667 12.47738,-11.66667 13.60041,-11.66667 1.12301,0 2.52167,-0.82184 3.10811,-1.82631 1.05005,-1.79854 15.48236,-9.18161 17.21308,-8.8056 0.4886,0.10614 1.27449,-0.43176 1.74641,-1.19536 1.28511,-2.07933 15.2522,-5.4068 28.53706,-6.79853 27.83273,-2.9158 54.35845,4.36741 75.78589,20.80864 8.30911,6.37556 22.47744,21.47672 25.3109,26.97732 0.99344,1.92858 2.43824,4.10651 3.21068,4.83984 0.77242,0.73334 2.81045,4.63334 4.52893,8.66667 1.71847,4.03333 4.01452,9.38847 5.10233,11.90031 2.06478,4.76774 5.60526,25.61412 5.62155,33.09969 l 0.009,4.33333 h -34.66667 c -36.82003,0 -40.22787,0.65748 -29.65311,5.72099 5.40615,2.58863 20.12076,10.85875 25.99903,14.61235 9.28396,5.92833 11.05321,6.90684 11.98741,6.62984 0.55,-0.16308 1,0.30349 1,1.03683 0,0.73333 0.65624,1.33333 1.45831,1.33333 1.88931,0 15.87503,8.35535 15.87503,9.48407 0,1.77086 -10.46087,11.55626 -14.81342,13.85689 -2.48596,1.31401 -6.61992,3.48416 -9.18658,4.82255 -6.86036,3.57734 -21.88386,5.36245 -31.75355,3.77297 -9.95486,-1.60317 -12.2746,-2.44995 -21.31568,-7.78076 -3.87647,-2.28564 -7.84944,-4.15572 -8.82883,-4.15572 -0.9794,0 -4.00915,2.71952 -6.7328,6.04336 -16.89253,20.61512 -46.2973,34.33148 -75.36915,35.15725 -5.5,0.15623 -10.37683,0.7 -10.83737,1.20839 -0.46056,0.50839 -1.51243,5.61133 -2.33747,11.33988 -0.82504,5.72855 -2.69823,13.04563 -4.16263,16.26018 -1.46438,3.21456 -2.66253,6.42753 -2.66253,7.13994 0,0.71242 -3.38588,5.82844 -7.52419,11.36895 -10.01346,13.40637 -27.04192,26.81347 -39.14248,30.8182 -0.36667,0.12133 -2.20201,0.86192 -4.07855,1.64571 -1.87653,0.78378 -8.17653,2.14917 -14,3.03417 -33.07796,5.02695 -65.98853,-9.88223 -85.38827,-38.68269 -3.63589,-5.39778 -8.37905,-16.09918 -9.0268,-20.36608 -0.13642,-0.89866 -0.68502,-2.33288 -1.21913,-3.18716 -0.53411,-0.85428 -1.35271,-5.20429 -1.81912,-9.66667 l -0.84801,-8.11343 h -67.10155 c -53.40468,0 -66.97,0.3428 -66.45711,1.6794 0.35445,0.92367 0.0224,4.67367 -0.73792,8.33333 -1.40244,6.75053 -1.66828,7.75315 -3.00159,11.32061 -0.4111,1.1 -1.84709,5.22461 -3.19106,9.1658 -1.34398,3.94118 -3.19479,7.45405 -4.11292,7.80637 -0.91812,0.35232 -1.32852,1.19201 -0.912,1.86597 1.18302,1.91416 -24.80935,27.00426 -30.77265,29.70443 -2.93333,1.3282 -7.13333,3.31051 -9.33333,4.40512 -10.28108,5.11539 -32.684476,7.78959 -46.975273,5.60724 z"
       id="path106"
       inkscape:connector-curvature="0" />
    <path
       style="fill:#c3fddc;stroke-width:1.33333337"
       d="m 74.311807,493.29248 c -15.796094,-2.4695 -24.209285,-6.09788 -38.667174,-16.67608 -7.736951,-5.66077 -19.17739,-18.94546 -21.486071,-24.94972 -0.775424,-2.01666 -1.91373,-3.66666 -2.529568,-3.66666 -0.615838,0 -0.748885,-0.6 -0.29566,-1.33334 0.453225,-0.73333 0.284671,-1.33333 -0.374565,-1.33333 -1.950362,0 -6.9392218,-17.9421 -6.951333,-25 l -0.00744,-4.33334 h 84.000007 c 46.199997,0 83.995467,0.45 83.989937,1 -0.0499,4.95286 -3.32503,19.29953 -5.52725,24.21202 -5.90695,13.1766 -6.94404,15.0564 -8.67271,15.71975 -0.98448,0.37778 -1.78997,1.46034 -1.78997,2.4057 0,3.36852 -21.12969,21.67454 -30.01295,26.00218 -14.84191,7.23048 -35.731568,10.4454 -51.675253,7.95282 z m 307.688203,0.62872 c -1.46666,-0.33776 -5.96666,-1.25482 -10,-2.03794 -4.03333,-0.78311 -12.43333,-3.89927 -18.66666,-6.9248 -9.06799,-4.4014 -13.52571,-7.707 -22.30154,-16.53756 -6.03252,-6.07014 -11.34756,-12.54807 -11.81121,-14.39542 -0.46366,-1.84733 -1.37796,-3.3588 -2.0318,-3.3588 -0.65383,0 -1.19248,-0.75 -1.197,-1.66666 -0.004,-0.91667 -0.9723,-3.46667 -2.15062,-5.66667 -2.6446,-4.93763 -5.72996,-17.186 -5.79368,-23 L 308,416.00001 h 84.04592 84.04594 l -0.91572,7 c -1.07647,8.22895 -5.34319,23.81227 -6.81907,24.90534 -0.56538,0.41873 -1.89333,2.43921 -2.951,4.48996 -1.05765,2.05075 -3.80092,5.95075 -6.09614,8.66667 -2.29523,2.71592 -4.56531,6.00165 -5.04463,7.30161 -0.47931,1.29997 -1.93508,2.75584 -3.23505,3.23528 -1.29996,0.47944 -4.76358,2.78711 -7.69691,5.12816 -9.60351,7.66441 -17.18354,11.70227 -26.66667,14.20523 C 407.4491,493.36512 387.1756,495.1131 382,493.9212 Z M 2.0322782,413.58785 c -1.25009756,-1.2501 -0.6000916,-14.0177 1.2348108,-24.2545 3.29476,-18.38126 7.70662,-34.57687 12.222572,-44.86818 1.01402,-2.31082 1.843673,-4.63972 1.843673,-5.17533 0,-1.49124 11.712888,-24.28628 17.105477,-33.28983 12.947221,-21.61688 36.917583,-47.64735 59.520967,-64.63643 16.112722,-12.1106 38.141712,-24.51848 53.373562,-30.0628 3.66667,-1.33464 7.30652,-2.90537 8.08857,-3.49049 2.06354,-1.54394 31.5437,-9.20359 43.24476,-11.23603 5.5,-0.95533 18.4,-2.14485 28.66667,-2.64339 49.22594,-2.39032 93.77898,8.44963 137.42029,33.43494 28.0214,16.04267 59.26942,45.9992 77.35889,74.16161 7.22103,11.24199 8.55416,12.08355 8.55416,5.39994 0,-7.70044 2.37142,-18.87262 5.14292,-24.22927 1.33694,-2.58395 2.8181,-6.26824 3.29147,-8.18732 0.47339,-1.91909 2.96929,-6.55463 5.54648,-10.3012 2.57719,-3.74656 4.6858,-7.42132 4.6858,-8.16612 0,-0.7448 1.2,-2.10359 2.66667,-3.01953 1.46666,-0.91595 2.66666,-2.37095 2.66666,-3.23332 0,-2.5986 19.44882,-19.68366 26.97532,-23.69682 14.1838,-7.56285 16.87827,-8.71009 27.18287,-11.57384 20.64083,-5.73628 36.06602,-5.74581 56.3394,-0.0348 8.99875,2.53493 21.21112,7.57425 22.83575,9.42293 0.36667,0.41724 3.0604,1.95862 5.98608,3.42528 5.849,2.93216 30.01392,26.04443 30.01392,28.7065 0,0.9164 0.85155,2.33233 1.89232,3.14652 2.85318,2.23197 10.89103,18.23215 13.22755,26.33076 1.13448,3.93225 2.44501,10.44956 2.91228,14.48289 0.46728,4.03334 1.16885,8.23334 1.55905,9.33334 0.3902,1.1 0.79182,3.95036 0.89247,6.33413 l 0.183,4.33413 -34.33333,-8e-4 -34.33334,-8.1e-4 0.0136,3 c 0.009,2.17101 1.39145,3.61877 5,5.23929 6.6938,3.00603 15.54831,8.19159 16.09755,9.42738 0.24445,0.55 1.21353,1 2.15352,1 0.94,0 3.14,1.11285 4.88889,2.47299 2.87327,2.2346 11.44814,7.10234 27.60432,15.67034 5.50691,2.92044 5.63766,3.12859 3,4.77583 -1.51685,0.94727 -2.75788,2.36513 -2.75788,3.15083 0,1.57397 -7.15676,7.26334 -9.13669,7.26334 -0.68457,0 -1.55025,0.79635 -1.92375,1.76966 -0.87409,2.27784 -16.92486,7.56368 -22.96756,7.56368 -2.55127,0 -4.63867,0.6 -4.63867,1.33333 0,1.62761 -4.89738,1.78408 -5.88382,0.18799 -0.38932,-0.62995 -4.06914,-1.54042 -8.17736,-2.02326 -7.30412,-0.85845 -15.04846,-4.00782 -22.14464,-9.0055 -1.94654,-1.37091 -4.21276,-2.49256 -5.03604,-2.49256 -0.82328,0 -6.80835,5.31146 -13.30014,11.80326 -7.029,7.02899 -14.43002,13.05912 -18.2973,14.90806 -3.57171,1.70764 -6.79403,3.48344 -7.1607,3.94624 -0.71622,0.90401 -11.18368,4.94473 -22,8.4926 -3.66667,1.2027 -12.36667,2.56797 -19.33333,3.03393 -6.96667,0.46595 -13.26667,1.29248 -14,1.83673 -1.48814,1.10446 -474.8645658,1.33686 -475.9677418,0.23368 z M 479.58579,401.66668 c -0.33537,-1.28333 -0.60977,-0.23333 -0.60977,2.33333 0,2.56667 0.2744,3.61667 0.60977,2.33334 0.33536,-1.28334 0.33536,-3.38334 0,-4.66667 z m -1.33333,-12 c -0.33538,-1.28333 -0.60978,-0.23333 -0.60978,2.33333 0,2.56667 0.2744,3.61667 0.60978,2.33334 0.33536,-1.28334 0.33536,-3.38334 0,-4.66667 z m -1.32846,-9.30796 c -0.33805,-1.29729 -0.63688,-0.55871 -0.66405,1.64129 -0.0272,2.2 0.24941,3.26142 0.61465,2.35871 0.36523,-0.90271 0.38746,-2.70271 0.0495,-4 z m -1.3465,-5.94204 c -0.42563,-1.06364 -0.74158,-0.74771 -0.80555,0.80556 -0.0579,1.40555 0.25724,2.19305 0.70029,1.75 0.44306,-0.44305 0.49042,-1.59307 0.1052,-2.55556 z m -6.66667,-22.66667 c -0.42563,-1.06364 -0.74157,-0.7477 -0.80555,0.80556 -0.0579,1.40555 0.25724,2.19306 0.7003,1.75 0.44305,-0.44305 0.49041,-1.59306 0.1052,-2.55556 z m -8.74805,-21.98333 c -1.57179,-2.70295 -1.95135,-1.8378 -0.66471,1.51512 0.45725,1.1916 1.11225,1.88568 1.45555,1.54238 0.34329,-0.34329 -0.012,-1.71917 -0.79084,-3.0575 z M 609.33335,287.4966 c 0,-0.27687 -1.05,-1.32687 -2.33333,-2.33334 -2.11475,-1.65849 -2.16191,-1.61133 -0.50341,0.50342 1.74182,2.221 2.83674,2.9273 2.83674,1.82992 z m -9.72365,-19.81438 c -0.31892,-1.65854 -0.59197,-0.61554 -0.60677,2.31779 -0.0148,2.93333 0.24614,4.29033 0.57986,3.01555 0.33372,-1.27479 0.34583,-3.67479 0.0269,-5.33334 z m 39.9761,0.65112 c -0.33538,-1.28333 -0.60978,-0.23333 -0.60978,2.33334 0,2.56666 0.2744,3.61666 0.60978,2.33333 0.33536,-1.28333 0.33536,-3.38333 0,-4.66667 z m -0.91911,-5.59232 c 0,-0.69244 -1.51584,-2.94244 -3.36852,-5 l -3.36853,-3.74101 3.0352,4.94356 c 3.25188,5.29652 3.70185,5.75811 3.70185,3.79745 z M 623.01836,249.7281 c -1.63992,-0.31648 -4.63993,-0.32468 -6.66667,-0.0181 -2.02675,0.30647 -0.685,0.56541 2.98167,0.57543 3.66666,0.009 5.32492,-0.24075 3.685,-0.55723 z"
       id="path104"
       inkscape:connector-curvature="0" />
    <path
       style="fill:#acfbcd;stroke-width:1.33333337"
       d="M 1.6556883,412.25021 C 0.95478959,410.42369 2.7914936,391.24617 4.4890139,382.66668 10.181223,353.89752 22.694889,323.9012 39.809691,298.00001 c 9.973627,-15.09388 40.263962,-46.63149 54.856979,-57.11585 4.766667,-3.42462 9.26667,-6.68425 10,-7.24362 3.21362,-2.45131 20.74374,-12.27196 28.66667,-16.05953 17.59644,-8.41204 41.92124,-16.51692 59.33333,-19.76955 15.8179,-2.95481 23.78896,-3.55407 47.33334,-3.55844 15.70448,-0.003 31.02053,0.67992 36,1.60501 4.76667,0.88555 9.86667,1.82995 11.33333,2.09866 7.24444,1.32728 30.66106,7.5856 31.90943,8.52812 0.78315,0.59126 5.92391,2.64098 11.42391,4.55493 27.3416,9.51459 62.07324,33.10936 85.65272,58.18776 10.00599,10.64206 13.20095,14.67588 25.9572,32.77251 18.90366,26.81761 33.37827,67.03271 35.89043,99.71502 0.79713,10.37042 0.65873,11.38013 -1.6484,12.0251 -1.38524,0.38726 -108.61991,0.66955 -238.29927,0.62734 C 27.834261,414.29896 2.3543563,414.07091 1.6556883,412.25021 Z M 609.33267,286.33334 c -12.46162,-8.50617 -11.84726,-23.7048 1.32046,-32.66666 5.70393,-3.88207 11.08727,-3.79624 18.05625,0.28786 12.92092,7.57216 13.03666,24.9549 0.2182,32.7708 -5.81016,3.54268 -14.07272,3.37739 -19.59491,-0.392 z"
       id="path102"
       inkscape:connector-curvature="0" />
    <path
       style="fill:#86f7b6;stroke-width:1.33333337"
       d="M 1.8714151,404.33335 C 3.2468938,390.62693 3.3960324,389.75064 7.1160102,373.51791 13.029412,347.71381 24.018433,322.2709 38.649957,300.50728 50.696664,282.58844 51.227267,281.96006 70.603376,262.66668 86.110046,247.22621 102.71591,234.30719 116.66667,226.83042 119.6,225.25834 122.9,223.38845 124,222.6751 c 4.16616,-2.70169 21.61577,-10.55309 28.33398,-12.74879 3.84965,-1.25817 8.49936,-3.04326 10.33269,-3.96688 3.06258,-1.54289 29.67572,-7.95468 39.25163,-9.4567 16.17995,-2.53792 39.46124,-3.41424 55.08171,-2.0733 9.35,0.80266 18.5,1.72567 20.33333,2.05114 28.11014,4.99041 53.03494,13.17562 74.60783,24.50097 32.07887,16.84075 55.0228,35.84412 78.98011,65.41544 6.53576,8.06732 22.15754,32.96948 26.59898,42.40058 10.1893,21.63629 18.28128,51.17732 20.50837,74.86912 l 0.90869,9.66667 H 239.95278 0.96823914 Z M 612.02659,286.99794 c -13.07149,-6.56736 -14.37906,-25.01726 -2.29517,-32.38524 8.21552,-5.0093 20.30656,-2.21492 25.6406,5.92586 5.3045,8.09568 1.0522,22.39152 -7.92785,26.65284 -5.79681,2.75076 -9.65379,2.70237 -15.41758,-0.19346 z"
       id="path100"
       inkscape:connector-curvature="0" />
    <path
       style="fill:#41f48c;stroke-width:1.33333337"
       d="m 2.5430173,412.14843 c -1.229453,-8.10435 4.4536013,-40.068 10.3140937,-58.01038 4.815163,-14.74202 18.12597,-42.25127 26.117992,-53.97767 30.963177,-45.43112 75.978097,-78.86876 127.571317,-94.76155 17.98533,-5.5402 29.51907,-7.69098 53.58215,-9.99185 30.77655,-2.9428 64.12163,0.86065 95.20477,10.8594 71.4513,22.98427 128.03666,78.39946 151.39597,148.26511 4.92401,14.72728 9.88723,38.66836 10.80813,52.13519 l 0.4103,6 -237.64054,0.14841 C 109.60491,412.89669 2.6110245,412.59672 2.5430173,412.14843 Z M 609.74618,285.23028 c -6.06364,-3.88408 -9.34507,-12.86092 -7.25332,-19.84256 3.13645,-10.46855 15.13589,-16.07878 24.06944,-11.25346 5.76227,3.1124 10.77106,10.29194 10.77106,15.43908 0,14.43924 -15.63511,23.31286 -27.58718,15.65694 z"
       id="path98"
       inkscape:connector-curvature="0" />
    <path
       style="fill:#38f386;stroke-width:1.33333337"
       d="m 2.8664429,407.66668 c 0.1859412,-4.03324 0.2382424,-4.07941 0.7552298,-0.66667 l 0.5554537,3.66667 H 239.61861 475.06008 l -0.86906,-11 c -0.478,-6.05 -1.15728,-13.4 -1.50954,-16.33333 l -0.64045,-5.33334 1.2162,4.66667 c 0.66891,2.56667 1.73559,10.21667 2.37041,17 l 1.1542,12.33333 H 239.72426 2.6666668 Z m 1.4967094,-10.33333 c 0,-3.3 0.2600213,-4.65 0.5778252,-3 0.3178039,1.65 0.3178039,4.35 0,6 -0.3178039,1.65 -0.5778252,0.3 -0.5778252,-3 z m 1.1144328,-8.55746 c -0.2000509,-3.54672 2.8367735,-20.41657 3.3799367,-18.77588 0.2427745,0.73334 -0.3859378,5.83334 -1.3971385,11.33334 -1.0112007,5.5 -1.9034599,8.84914 -1.9827982,7.44254 z M 470.77195,373.88891 c 0.064,-1.55327 0.37992,-1.8692 0.80555,-0.80556 0.38516,0.96249 0.3378,2.1125 -0.1052,2.55556 -0.44306,0.44305 -0.75819,-0.34446 -0.7003,-1.75 z M 10.77193,364.55557 c 0.06398,-1.55326 0.379921,-1.8692 0.805556,-0.80556 0.385161,0.9625 0.337792,2.11251 -0.105263,2.55556 -0.443056,0.44306 -0.758187,-0.34445 -0.700293,-1.75 z m 456.00002,-2.66666 c 0.064,-1.55327 0.37992,-1.8692 0.80555,-0.80556 0.38516,0.96249 0.3378,2.1125 -0.1052,2.55556 -0.44306,0.44305 -0.75819,-0.34446 -0.7003,-1.75 z M 12.108409,360.4738 c -0.150985,-2.12563 5.296422,-19.5134 5.918464,-18.89136 0.278737,0.27873 -0.914496,4.98672 -2.651631,10.46219 -1.737134,5.47546 -3.207209,9.26858 -3.266833,8.42917 z m 452.653511,-5.23569 c -0.49042,-1.95402 -0.63454,-3.8099 -0.32025,-4.12419 0.31428,-0.31428 0.97268,1.02732 1.46311,2.98133 0.49042,1.95402 0.63454,3.8099 0.32025,4.12419 -0.31428,0.31428 -0.97268,-1.02732 -1.46311,-2.98133 z m -1.98997,-6.79571 c -0.0579,-0.85669 -0.45057,-2.65669 -0.87261,-4 -0.7294,-2.32163 -0.69178,-2.32453 0.76104,-0.0588 0.8406,1.31096 1.23328,3.11096 0.8726,4 -0.47331,1.16665 -0.68506,1.18303 -0.76103,0.0588 z m -5.88304,-13.99795 c -1.20645,-3.07132 -1.97511,-5.80267 -1.70813,-6.06965 0.26698,-0.26698 1.48564,2.01436 2.70813,5.06965 1.22248,3.0553 1.99113,5.78664 1.70812,6.06966 -0.28301,0.28302 -1.50167,-1.99832 -2.70812,-5.06966 z m -436.848075,3.55556 c 0,-0.73333 0.581624,-2.23333 1.292499,-3.33333 0.710875,-1.1 1.292499,-1.4 1.292499,-0.66667 0,0.73334 -0.581624,2.23334 -1.292499,3.33334 -0.710875,1.1 -1.292499,1.4 -1.292499,0.66666 z m 3.405734,-8.66667 c 0.451115,-1.83333 2.195716,-5.43333 3.876891,-8 1.681174,-2.56666 4.099694,-6.93812 5.37449,-9.71434 1.274795,-2.77622 2.579603,-4.78588 2.899574,-4.46591 0.533481,0.53348 -1.808764,5.24821 -9.951011,20.03048 -1.930394,3.50464 -2.724198,4.28035 -2.199944,2.14977 z M 446.97438,314.35898 c -1.64368,-3.00076 -2.79204,-5.6524 -2.55191,-5.89253 0.24013,-0.24013 1.80388,1.99612 3.47499,4.96945 1.6711,2.97335 2.81946,5.62499 2.5519,5.89255 -0.26756,0.26756 -1.8313,-1.96871 -3.47498,-4.96947 z m -7.64663,-12.06666 c -1.39265,-2.36076 -5.11112,-7.68587 -8.26325,-11.83356 -3.15214,-4.1477 -5.73115,-8.0159 -5.73115,-8.59602 0,-0.5801 1.93088,1.61347 4.29084,4.8746 2.35997,3.26114 4.67028,6.22934 5.13401,6.596 1.53652,1.21487 8.11024,12.24268 7.60131,12.75162 -0.27481,0.27482 -1.63911,-1.43187 -3.03176,-3.79264 z M 39.333335,301.33334 c 1.137664,-2.2 2.36848,-4 2.735146,-4 0.366667,0 -0.264149,1.8 -1.401813,4 -1.137664,2.2 -2.36848,4 -2.735147,4 -0.366666,0 0.26415,-1.8 1.401814,-4 z m 5.333333,-8 c 1.327315,-1.46666 2.7133,-2.66666 3.079967,-2.66666 0.366667,0 -0.419319,1.2 -1.746633,2.66666 -1.327315,1.46667 -2.7133,2.66667 -3.079967,2.66667 -0.366667,0 0.419319,-1.2 1.746633,-2.66667 z m 3.333334,-4.37562 c 0,-0.49994 5.056101,-6.59874 11.23578,-13.5529 12.904593,-14.52188 22.951453,-23.7247 38.176647,-34.96941 7.397701,-5.46364 15.920911,-10.37307 15.920911,-9.17055 0,0.36667 -1.85758,1.62725 -4.12795,2.80131 -4.66579,2.41277 -25.473172,18.12296 -32.952655,24.88023 -2.714428,2.45232 -9.671671,9.84261 -15.460541,16.42285 -5.788868,6.58025 -11.035286,12.53409 -11.658704,13.23076 -0.623419,0.69667 -1.133488,0.85764 -1.133488,0.35771 z m 562.771978,-3.97736 c -1.77543,-0.90586 -3.51308,-2.54702 -3.86147,-3.64702 -0.48524,-1.5321 0.003,-1.4361 2.08478,0.41034 1.49501,1.32568 4.43266,2.9241 6.52813,3.55205 2.71377,0.81325 3.04271,1.16905 1.14327,1.23669 -1.46667,0.0523 -4.11928,-0.64621 -5.89471,-1.55206 z m 15.57128,-0.82882 c 6.26475,-2.9761 8.32343,-6.65117 8.32343,-14.8586 0,-3.96216 -1.03163,-6.37904 -4.33333,-10.15206 -4.00756,-4.57964 -4.06782,-4.77872 -0.80151,-2.64807 10.74893,7.01167 7.46591,26.92928 -4.86516,29.51624 -3.24711,0.68121 -2.93153,0.33159 1.67657,-1.85751 z M 411.33335,267.76981 c -18.68702,-18.98172 -36.83996,-32.74456 -56,-42.45696 -4.4,-2.2304 -6.5,-3.66222 -4.66667,-3.18182 3.82308,1.0018 9.82963,3.94227 14.66667,7.17999 1.83333,1.22716 6.92189,4.5842 11.30792,7.46009 11.86014,7.77663 32.23645,25.88709 44.59116,39.63259 6.85062,7.62183 1.57028,3.01635 -9.89908,-8.63389 z m 191.52107,2.60993 c -0.15792,-5.28872 0.47555,-7.04237 3.98971,-11.04478 2.2976,-2.61682 4.46682,-4.46847 4.8205,-4.11478 0.3537,0.3537 -1.05269,2.10172 -3.1253,3.88451 -2.94186,2.53047 -3.95799,4.81193 -4.63279,10.40171 l -0.86439,7.16028 z m 13.49727,-16.66984 c 2.02674,-0.30648 5.02675,-0.29828 6.66667,0.0181 1.63992,0.31648 -0.0184,0.56722 -3.685,0.55722 -3.66667,-0.0107 -5.00842,-0.26896 -2.98167,-0.57542 z M 115.46646,229.11794 c 0.8661,-1.40137 13.94304,-8.15289 14.57235,-7.52357 0.24217,0.24217 -3.10005,2.29698 -7.42715,4.56626 -4.32711,2.26928 -7.54245,3.60007 -7.1452,2.95731 z m 21.20576,-11.58857 c 2.93638,-1.3612 6.83639,-2.86314 8.66667,-3.33762 1.83028,-0.47449 0.92529,0.25102 -2.0111,1.61223 -2.93639,1.3612 -6.83639,2.86313 -8.66667,3.33761 -1.83028,0.4745 -0.92529,-0.25101 2.0111,-1.61222 z m 199.32779,-1.52936 c -3.3,-1.38472 -5.1,-2.5067 -4,-2.49328 2.24106,0.0273 13.42531,4.9483 11.33334,4.98656 -0.73334,0.0135 -4.03334,-1.10856 -7.33334,-2.49328 z m -184.59123,-4.53596 c 2.98871,-2.09338 13.86277,-5.30362 14.79779,-4.36859 0.33222,0.33221 -2.43019,1.33195 -6.13871,2.2216 -3.70851,0.88965 -7.07631,2.15727 -7.48399,2.81692 -0.40768,0.65965 -1.43933,1.19936 -2.29256,1.19936 -0.85322,0 -0.35037,-0.84119 1.11747,-1.86929 z m 163.92456,-3.46404 c -1.68085,-0.7223 -1.9273,-1.14591 -0.66666,-1.14591 1.1,0 3.2,0.51565 4.66666,1.14591 1.68086,0.72229 1.92731,1.1459 0.66667,1.1459 -1.1,0 -3.2,-0.51565 -4.66667,-1.1459 z m -145.33333,-2.66667 c 1.46666,-0.63025 3.56666,-1.14591 4.66666,-1.14591 1.26064,0 1.01419,0.42362 -0.66666,1.14591 -1.46667,0.63025 -3.56667,1.14591 -4.66667,1.14591 -1.26064,0 -1.01419,-0.42362 0.66667,-1.14591 z m 139.08333,0.42252 c 0.9625,-0.38516 2.1125,-0.3378 2.55556,0.1052 0.44306,0.44305 -0.34445,0.75819 -1.75,0.70029 -1.55326,-0.064 -1.8692,-0.37992 -0.80556,-0.80554 z m -5.33333,-1.33333 c 0.96249,-0.38516 2.11249,-0.3378 2.55556,0.1052 0.44305,0.44305 -0.34445,0.75818 -1.75,0.70029 -1.55327,-0.064 -1.8692,-0.37992 -0.80556,-0.80555 z m -122.66667,-2.66667 c 0.96249,-0.38516 2.11249,-0.3378 2.55556,0.1052 0.44305,0.44305 -0.34445,0.75819 -1.75,0.70029 -1.55327,-0.064 -1.8692,-0.37992 -0.80556,-0.80554 z m 116,0 c 0.9625,-0.38516 2.1125,-0.3378 2.55556,0.1052 0.44306,0.44305 -0.34445,0.75819 -1.75,0.70029 -1.55326,-0.064 -1.8692,-0.37992 -0.80556,-0.80554 z m -108.41667,-1.75585 c 2.2,-0.5598 5.8,-1.01982 8,-1.02226 3.36312,-0.004 3.15084,0.17123 -1.33333,1.09875 -6.75408,1.39704 -12.21145,1.33441 -6.66667,-0.0765 z m 100.33334,0.45029 c 0.91667,-0.36988 2.41667,-0.36988 3.33333,0 0.91667,0.36988 0.16667,0.67252 -1.66666,0.67252 -1.83334,0 -2.58334,-0.30264 -1.66667,-0.67252 z m -8.66667,-1.3694 c 1.28334,-0.33536 3.38334,-0.33536 4.66667,0 1.28333,0.33537 0.23333,0.60977 -2.33333,0.60977 -2.56667,0 -3.61667,-0.2744 -2.33334,-0.60977 z m -75.31779,-1.35724 c 1.65855,-0.31892 4.05855,-0.30681 5.33334,0.0269 1.27478,0.33372 -0.0823,0.59467 -3.01555,0.57987 -2.93333,-0.0148 -3.97633,-0.28785 -2.31779,-0.60677 z m 65.33334,0 c 1.65855,-0.31892 4.05855,-0.30681 5.33333,0.0269 1.27479,0.33372 -0.0823,0.59467 -3.01554,0.57987 -2.93334,-0.0148 -3.97634,-0.28785 -2.31779,-0.60677 z m -43.34888,-1.38432 c 7.15,-0.23975 18.85,-0.23975 26,0 7.15,0.23975 1.3,0.43589 -13,0.43589 -14.3,0 -20.15,-0.19614 -13,-0.43589 z"
       id="path96"
       inkscape:connector-curvature="0" />
    <path
       style="fill:#2af27e;stroke-width:1.33333337"
       d="m 5.5438598,385.33335 c 0,-1.83334 0.3026316,-2.58334 0.6725147,-1.66667 0.3698831,0.91667 0.3698831,2.41667 0,3.33333 -0.3698831,0.91667 -0.6725147,0.16667 -0.6725147,-1.66666 z M 186.41667,200.42253 c 0.9625,-0.38516 2.1125,-0.3378 2.55556,0.1052 0.44306,0.44305 -0.34445,0.75818 -1.75,0.70029 -1.55326,-0.064 -1.8692,-0.37992 -0.80556,-0.80555 z m 8,-1.33334 c 0.9625,-0.38516 2.1125,-0.3378 2.55556,0.1052 0.44306,0.44306 -0.34445,0.75819 -1.75,0.7003 -1.55326,-0.064 -1.8692,-0.37992 -0.80556,-0.80555 z m 87.91667,0.0277 c 0.91667,-0.36988 2.41667,-0.36988 3.33334,0 0.91666,0.36988 0.16666,0.67252 -1.66667,0.67252 -1.83333,0 -2.58333,-0.30264 -1.66667,-0.67252 z m -7.91666,-1.36111 c 0.96249,-0.38516 2.11249,-0.3378 2.55556,0.1052 0.44305,0.44305 -0.34446,0.75819 -1.75,0.70029 -1.55327,-0.064 -1.8692,-0.37992 -0.80556,-0.80554 z"
       id="path94"
       inkscape:connector-curvature="0" />
  </g>
</svg>
